<svg xmlns="http://www.w3.org/2000/svg" xmlns:xlink="http://www.w3.org/1999/xlink" width="500" zoomAndPan="magnify" viewBox="0 0 375 374.999991" height="500" preserveAspectRatio="xMidYMid meet" version="1.0"><defs><clipPath id="6f95ce9977"><path d="M 61.832031 57.445312 L 313.082031 57.445312 L 313.082031 143 L 61.832031 143 Z M 61.832031 57.445312 " clip-rule="nonzero"/></clipPath><clipPath id="c8fbf8ecc9"><path d="M 61.832031 177 L 313.082031 177 L 313.082031 317.695312 L 61.832031 317.695312 Z M 61.832031 177 " clip-rule="nonzero"/></clipPath></defs><g clip-path="url(#6f95ce9977)"><path fill="#5e17eb" d="M 98.566406 78.863281 L 158.433594 78.863281 C 175.640625 78.863281 173.761719 69.769531 173.761719 57.464844 L 201.234375 57.464844 C 201.234375 69.855469 199.382812 78.863281 216.566406 78.863281 L 276.140625 78.863281 C 303.039062 78.863281 313.160156 91.589844 313.160156 123.980469 L 313.160156 142.3125 L 285.75 142.3125 C 285.628906 133.101562 285.5 124.007812 285.378906 123.460938 C 282.992188 112.847656 276.863281 108.941406 266.019531 108.941406 L 218.589844 108.941406 C 200.078125 108.941406 191.113281 103.445312 187.644531 88.695312 C 183.882812 103.445312 174.917969 108.941406 156.410156 108.941406 L 108.980469 108.941406 C 94.519531 108.941406 88.445312 115.882812 88.445312 136.414062 C 88.445312 136.414062 88.453125 140.402344 88.46875 142.3125 L 61.839844 142.3125 L 61.839844 123.980469 C 61.839844 91.589844 71.960938 78.863281 98.566406 78.863281 " fill-opacity="1" fill-rule="nonzero"/></g><g clip-path="url(#c8fbf8ecc9)"><path fill="#5e17eb" d="M 89.621094 251.535156 C 92.003906 262.152344 98.132812 266.054688 108.980469 266.054688 L 156.410156 266.054688 C 174.917969 266.054688 183.882812 271.550781 187.355469 286.300781 C 191.113281 271.550781 200.078125 266.054688 218.589844 266.054688 L 266.019531 266.054688 C 280.480469 266.054688 286.550781 259.113281 286.550781 238.582031 C 286.550781 238.582031 286.367188 208.347656 286.109375 177.617188 L 313.160156 177.617188 L 313.160156 251.015625 C 313.160156 283.40625 303.039062 296.132812 276.429688 296.132812 L 216.5625 296.132812 C 199.359375 296.132812 201.234375 305.226562 201.234375 317.535156 L 173.761719 317.535156 C 173.761719 305.140625 175.613281 296.132812 158.433594 296.132812 L 98.855469 296.132812 C 71.960938 296.132812 61.839844 283.40625 61.839844 251.015625 L 61.839844 177.617188 L 88.761719 177.617188 C 89.046875 210.8125 89.445312 250.757812 89.621094 251.535156 " fill-opacity="1" fill-rule="nonzero"/></g><path fill="#000000" d="M 260.589844 198.117188 L 260.589844 214.644531 C 260.589844 214.644531 223.988281 232.683594 187.5 232.683594 C 151.011719 232.683594 114.40625 214.644531 114.40625 214.644531 L 114.40625 198.117188 C 136.632812 205.515625 161.457031 209.703125 187.5 209.71875 C 213.542969 209.703125 238.363281 205.515625 260.589844 198.117188 " fill-opacity="1" fill-rule="nonzero"/><path fill="#000000" d="M 222.121094 142.3125 C 231.871094 142.3125 239.773438 150.214844 239.773438 159.964844 C 239.773438 169.714844 231.871094 177.617188 222.121094 177.617188 C 212.371094 177.617188 204.46875 169.714844 204.46875 159.964844 C 204.46875 150.214844 212.371094 142.3125 222.121094 142.3125 " fill-opacity="1" fill-rule="nonzero"/><path fill="#000000" d="M 135.167969 150.308594 L 143.164062 142.3125 L 152.820312 151.96875 L 162.476562 142.3125 L 170.472656 150.308594 L 160.816406 159.964844 L 170.472656 169.621094 L 162.476562 177.617188 L 152.820312 167.960938 L 143.164062 177.617188 L 135.167969 169.621094 L 144.824219 159.964844 L 135.167969 150.308594 " fill-opacity="1" fill-rule="nonzero"/></svg>