<svg xmlns="http://www.w3.org/2000/svg" xmlns:xlink="http://www.w3.org/1999/xlink" width="232" zoomAndPan="magnify" viewBox="0 0 174 74.999997" height="100" preserveAspectRatio="xMidYMid meet" version="1.0"><defs><g/><clipPath id="94fa594c93"><path d="M 0 13.617188 L 42.75 13.617188 L 42.75 28 L 0 28 Z M 0 13.617188 " clip-rule="nonzero"/></clipPath><clipPath id="9594da557b"><path d="M 0 33 L 42.75 33 L 42.75 57.867188 L 0 57.867188 Z M 0 33 " clip-rule="nonzero"/></clipPath></defs><g clip-path="url(#94fa594c93)"><path fill="#5e17eb" d="M 6.203125 17.230469 L 16.308594 17.230469 C 19.214844 17.230469 18.898438 15.695312 18.898438 13.617188 L 23.535156 13.617188 C 23.535156 15.710938 23.222656 17.230469 26.125 17.230469 L 36.183594 17.230469 C 40.722656 17.230469 42.433594 19.378906 42.433594 24.847656 L 42.433594 27.945312 L 37.804688 27.945312 C 37.785156 26.390625 37.761719 24.855469 37.742188 24.761719 C 37.339844 22.96875 36.304688 22.308594 34.472656 22.308594 L 26.464844 22.308594 C 23.339844 22.308594 21.828125 21.382812 21.242188 18.890625 C 20.605469 21.382812 19.09375 22.308594 15.96875 22.308594 L 7.960938 22.308594 C 5.519531 22.308594 4.492188 23.480469 4.492188 26.949219 C 4.492188 26.949219 4.496094 27.621094 4.496094 27.945312 L 0 27.945312 L 0 24.847656 C 0 19.378906 1.710938 17.230469 6.203125 17.230469 " fill-opacity="1" fill-rule="nonzero"/></g><g clip-path="url(#9594da557b)"><path fill="#5e17eb" d="M 4.691406 46.386719 C 5.09375 48.175781 6.128906 48.835938 7.960938 48.835938 L 15.96875 48.835938 C 19.09375 48.835938 20.605469 49.765625 21.191406 52.253906 C 21.828125 49.765625 23.339844 48.835938 26.464844 48.835938 L 34.472656 48.835938 C 36.914062 48.835938 37.941406 47.664062 37.941406 44.199219 C 37.941406 44.199219 37.910156 39.09375 37.867188 33.90625 L 42.433594 33.90625 L 42.433594 46.296875 C 42.433594 51.765625 40.722656 53.914062 36.230469 53.914062 L 26.125 53.914062 C 23.21875 53.914062 23.535156 55.449219 23.535156 57.527344 L 18.898438 57.527344 C 18.898438 55.433594 19.210938 53.914062 16.308594 53.914062 L 6.25 53.914062 C 1.710938 53.914062 0 51.765625 0 46.296875 L 0 33.90625 L 4.546875 33.90625 C 4.59375 39.507812 4.660156 46.253906 4.691406 46.386719 " fill-opacity="1" fill-rule="nonzero"/></g><path fill="#000000" d="M 33.558594 37.367188 L 33.558594 40.15625 C 33.558594 40.15625 27.378906 43.203125 21.21875 43.203125 C 15.054688 43.203125 8.875 40.15625 8.875 40.15625 L 8.875 37.367188 C 12.628906 38.613281 16.820312 39.320312 21.21875 39.324219 C 25.613281 39.320312 29.804688 38.613281 33.558594 37.367188 " fill-opacity="1" fill-rule="nonzero"/><path fill="#000000" d="M 27.0625 27.945312 C 28.707031 27.945312 30.042969 29.277344 30.042969 30.925781 C 30.042969 32.570312 28.707031 33.90625 27.0625 33.90625 C 25.417969 33.90625 24.082031 32.570312 24.082031 30.925781 C 24.082031 29.277344 25.417969 27.945312 27.0625 27.945312 " fill-opacity="1" fill-rule="nonzero"/><path fill="#000000" d="M 12.382812 29.292969 L 13.730469 27.945312 L 15.363281 29.574219 L 16.992188 27.945312 L 18.34375 29.292969 L 16.710938 30.925781 L 18.34375 32.554688 L 16.992188 33.90625 L 15.363281 32.273438 L 13.730469 33.90625 L 12.382812 32.554688 L 14.011719 30.925781 L 12.382812 29.292969 " fill-opacity="1" fill-rule="nonzero"/><g fill="#000000" fill-opacity="1"><g transform="translate(49.403265, 51.028149)"><g><path d="M 2.984375 -32.125 L 9.859375 -32.125 L 9.859375 -6.421875 L 23.640625 -6.421875 L 23.640625 0 L 2.984375 0 Z M 2.984375 -32.125 "/></g></g></g><g fill="#000000" fill-opacity="1"><g transform="translate(72.807359, 51.028149)"><g><path d="M 7.578125 0.453125 C 6.773438 0.453125 6.015625 0.296875 5.296875 -0.015625 C 4.578125 -0.335938 3.941406 -0.773438 3.390625 -1.328125 C 2.835938 -1.878906 2.398438 -2.515625 2.078125 -3.234375 C 1.765625 -3.953125 1.609375 -4.707031 1.609375 -5.5 L 1.609375 -8.265625 C 1.609375 -9.054688 1.765625 -9.8125 2.078125 -10.53125 C 2.398438 -11.25 2.835938 -11.882812 3.390625 -12.4375 C 3.941406 -12.988281 4.578125 -13.421875 5.296875 -13.734375 C 6.015625 -14.054688 6.773438 -14.21875 7.578125 -14.21875 L 14.921875 -14.21875 L 14.921875 -15.828125 C 14.921875 -17.359375 14.15625 -18.125 12.625 -18.125 L 3.671875 -18.125 L 3.671875 -23.40625 L 15.609375 -23.40625 C 16.398438 -23.40625 17.15625 -23.242188 17.875 -22.921875 C 18.59375 -22.597656 19.226562 -22.160156 19.78125 -21.609375 C 20.332031 -21.054688 20.765625 -20.421875 21.078125 -19.703125 C 21.398438 -18.984375 21.5625 -18.226562 21.5625 -17.4375 L 21.5625 0 L 16.984375 0 L 16.0625 -2.53125 L 15.828125 -2.53125 C 15.523438 -1.945312 15.128906 -1.441406 14.640625 -1.015625 C 14.210938 -0.640625 13.664062 -0.300781 13 0 C 12.34375 0.300781 11.53125 0.453125 10.5625 0.453125 Z M 11.703125 -4.8125 C 12.867188 -4.8125 13.695312 -5.054688 14.1875 -5.546875 C 14.675781 -6.035156 14.921875 -6.863281 14.921875 -8.03125 L 14.921875 -9.640625 L 10.5625 -9.640625 C 9.03125 -9.640625 8.265625 -8.875 8.265625 -7.34375 L 8.265625 -7.109375 C 8.265625 -5.578125 9.03125 -4.8125 10.5625 -4.8125 Z M 11.703125 -4.8125 "/></g></g></g><g fill="#000000" fill-opacity="1"><g transform="translate(95.752545, 51.028149)"><g><path d="M 2.75 -31.671875 L 9.40625 -31.671875 L 9.40625 0 L 2.75 0 Z M 2.75 -31.671875 "/></g></g></g><g fill="#000000" fill-opacity="1"><g transform="translate(106.995624, 51.028149)"><g><path d="M 7.578125 0.453125 C 6.773438 0.453125 6.015625 0.296875 5.296875 -0.015625 C 4.578125 -0.335938 3.941406 -0.773438 3.390625 -1.328125 C 2.835938 -1.878906 2.398438 -2.515625 2.078125 -3.234375 C 1.765625 -3.953125 1.609375 -4.707031 1.609375 -5.5 L 1.609375 -8.265625 C 1.609375 -9.054688 1.765625 -9.8125 2.078125 -10.53125 C 2.398438 -11.25 2.835938 -11.882812 3.390625 -12.4375 C 3.941406 -12.988281 4.578125 -13.421875 5.296875 -13.734375 C 6.015625 -14.054688 6.773438 -14.21875 7.578125 -14.21875 L 14.921875 -14.21875 L 14.921875 -15.828125 C 14.921875 -17.359375 14.15625 -18.125 12.625 -18.125 L 3.671875 -18.125 L 3.671875 -23.40625 L 15.609375 -23.40625 C 16.398438 -23.40625 17.15625 -23.242188 17.875 -22.921875 C 18.59375 -22.597656 19.226562 -22.160156 19.78125 -21.609375 C 20.332031 -21.054688 20.765625 -20.421875 21.078125 -19.703125 C 21.398438 -18.984375 21.5625 -18.226562 21.5625 -17.4375 L 21.5625 0 L 16.984375 0 L 16.0625 -2.53125 L 15.828125 -2.53125 C 15.523438 -1.945312 15.128906 -1.441406 14.640625 -1.015625 C 14.210938 -0.640625 13.664062 -0.300781 13 0 C 12.34375 0.300781 11.53125 0.453125 10.5625 0.453125 Z M 11.703125 -4.8125 C 12.867188 -4.8125 13.695312 -5.054688 14.1875 -5.546875 C 14.675781 -6.035156 14.921875 -6.863281 14.921875 -8.03125 L 14.921875 -9.640625 L 10.5625 -9.640625 C 9.03125 -9.640625 8.265625 -8.875 8.265625 -7.34375 L 8.265625 -7.109375 C 8.265625 -5.578125 9.03125 -4.8125 10.5625 -4.8125 Z M 11.703125 -4.8125 "/></g></g></g><g fill="#000000" fill-opacity="1"><g transform="translate(129.940808, 51.028149)"><g><path d="M 1.609375 -5.28125 L 11.46875 -17.203125 L 11.46875 -17.671875 L 3.4375 -17.671875 L 1.609375 -19.5 L 1.609375 -23.40625 L 20.421875 -23.40625 L 20.421875 -18.125 L 10.5625 -6.1875 L 10.5625 -5.734375 L 20.421875 -5.734375 L 20.421875 0 L 1.609375 0 Z M 1.609375 -5.28125 "/></g></g></g></svg>